<svg xmlns="http://www.w3.org/2000/svg" viewBox="0 0 173.2 79.6"><defs><style>.a26b3b0b-faae-40ec-8b8f-24cb53313ef9{fill:#e6a4b4;}.a4a167ee-8385-452c-93bd-90c4f83a8077{fill:#b95e72;}.bd050091-77ed-4cb3-9788-3bd3d8eb98a4{fill:#e0e0e0;}</style></defs><title>OriginalSVG</title><g id="e4f6fc9f-ba1c-4d69-8db0-0724a3e61cc1" data-name="Capa 2"><g id="e2af4a61-3ef3-43b4-8b09-a499e79aa8fb" data-name="Capa 1"><path class="a26b3b0b-faae-40ec-8b8f-24cb53313ef9" d="M86.77,39.8a4.93,4.93,0,1,1-4.93-4.93,4.93,4.93,0,0,1,4.93,4.93"/><path class="a4a167ee-8385-452c-93bd-90c4f83a8077" d="M81.84,6A33.8,33.8,0,1,1,48,39.8,33.84,33.84,0,0,1,81.84,6m0-6a39.8,39.8,0,1,0,39.81,39.8A39.8,39.8,0,0,0,81.84,0"/><polygon class="bd050091-77ed-4cb3-9788-3bd3d8eb98a4" points="8.79 47.59 20.31 47.59 20.31 54.59 0 54.59 0 17.39 8.79 17.39 8.79 47.59"/><path class="bd050091-77ed-4cb3-9788-3bd3d8eb98a4" d="M25.16,20.54a4.65,4.65,0,0,1-1.46-3.47,4.71,4.71,0,0,1,1.46-3.53,5.27,5.27,0,0,1,3.78-1.4,5.2,5.2,0,0,1,3.73,1.4,4.68,4.68,0,0,1,1.47,3.53,4.62,4.62,0,0,1-1.47,3.47,5.16,5.16,0,0,1-3.73,1.4,5.23,5.23,0,0,1-3.78-1.4m8.15,34.05H24.52V25h8.79Z"/><path class="bd050091-77ed-4cb3-9788-3bd3d8eb98a4" d="M44.67,53.69a11.4,11.4,0,0,1-4.62-3.63,9.68,9.68,0,0,1-1.9-5.17h8.68a3.48,3.48,0,0,0,1.39,2.49,4.77,4.77,0,0,0,3,1,4.18,4.18,0,0,0,2.55-.67A2,2,0,0,0,54.7,46a2,2,0,0,0-1.29-1.88,24.33,24.33,0,0,0-4.16-1.35,40,40,0,0,1-5.14-1.56,8.94,8.94,0,0,1-3.55-2.6,7.23,7.23,0,0,1-1.49-4.8,8.34,8.34,0,0,1,1.36-4.64,9.36,9.36,0,0,1,4-3.31,15,15,0,0,1,6.3-1.22c3.6,0,6.43.92,8.51,2.76a10.85,10.85,0,0,1,3.57,7.31H54.7a3.71,3.71,0,0,0-1.31-2.44,4.48,4.48,0,0,0-2.91-.9,4,4,0,0,0-2.36.61,2,2,0,0,0-.82,1.67,2,2,0,0,0,1.31,1.91,20.39,20.39,0,0,0,4.08,1.27,46.21,46.21,0,0,1,5.2,1.67,9,9,0,0,1,3.52,2.65A7.7,7.7,0,0,1,63,46a8,8,0,0,1-1.42,4.64,9.37,9.37,0,0,1-4.06,3.21A15,15,0,0,1,51.36,55a16.17,16.17,0,0,1-6.69-1.32"/><path class="bd050091-77ed-4cb3-9788-3bd3d8eb98a4" d="M68.3,31.75a12.64,12.64,0,0,1,4.55-5.3,11.58,11.58,0,0,1,6.42-1.86,10.71,10.71,0,0,1,5.32,1.28,9.22,9.22,0,0,1,3.53,3.33V25h8.79V54.59H88.12V50.4a9.62,9.62,0,0,1-3.58,3.34A10.74,10.74,0,0,1,79.22,55a11.35,11.35,0,0,1-6.37-1.88,12.78,12.78,0,0,1-4.55-5.35,18.21,18.21,0,0,1-1.67-8,18,18,0,0,1,1.67-8m18,2.7a6,6,0,0,0-8.89,0,7.42,7.42,0,0,0-1.83,5.32,7.63,7.63,0,0,0,1.83,5.38,5.78,5.78,0,0,0,4.44,2,5.84,5.84,0,0,0,4.45-2,7.54,7.54,0,0,0,1.83-5.36,7.53,7.53,0,0,0-1.83-5.35"/><path class="bd050091-77ed-4cb3-9788-3bd3d8eb98a4" d="M115.93,26.1a9.75,9.75,0,0,1,5.14-1.4v9.59h-2.42a7.24,7.24,0,0,0-4.93,1.46c-1.1,1-1.65,2.68-1.65,5.11V54.59h-8.79V25h8.79V30a11.83,11.83,0,0,1,3.86-3.85"/><path class="bd050091-77ed-4cb3-9788-3bd3d8eb98a4" d="M141.27,46.91v7.68H136.8q-4.78,0-7.45-2.41t-2.68-7.87V32.54h-3.49V25h3.49V17.81h8.79V25h5.76v7.52h-5.76V44.42a2.52,2.52,0,0,0,.62,1.9,3,3,0,0,0,2.06.59Z"/><path class="bd050091-77ed-4cb3-9788-3bd3d8eb98a4" d="M173,42H153.15a6.23,6.23,0,0,0,1.72,4.21,5.18,5.18,0,0,0,3.73,1.46,4.61,4.61,0,0,0,4.57-2.86h9.36a13.38,13.38,0,0,1-2.6,5.24,13,13,0,0,1-4.7,3.66A14.77,14.77,0,0,1,158.91,55a15,15,0,0,1-7.51-1.85,13,13,0,0,1-5.14-5.3,16.83,16.83,0,0,1-1.85-8.06,17,17,0,0,1,1.82-8,12.83,12.83,0,0,1,5.12-5.3,16.2,16.2,0,0,1,15-.06,12.74,12.74,0,0,1,5.06,5.15,15.93,15.93,0,0,1,1.83,7.79A22.39,22.39,0,0,1,173,42m-8.84-5a4.73,4.73,0,0,0-1.54-3.71,5.57,5.57,0,0,0-3.86-1.38,5.47,5.47,0,0,0-3.72,1.33,5.9,5.9,0,0,0-1.88,3.76Z"/></g></g></svg>